<svg width="52" height="52" viewBox="0 0 52 52" fill="none" xmlns="http://www.w3.org/2000/svg">
<g clip-path="url(#clip0)">
<path d="M40.4793 31.1744C39.837 30.6392 38.8736 29.4616 38.8736 29.4616C36.7327 26.4642 32.8789 24.6445 32.8789 24.6445V22.9317C32.8789 22.7177 32.986 22.6106 33.2001 22.6106C33.4141 22.6106 33.5212 22.3965 33.5212 22.2895V20.6837C34.2706 18.3286 36.9467 17.1511 36.9467 17.1511C36.9467 17.1511 37.589 16.83 38.7665 16.83C39.944 16.83 40.5863 16.1877 40.5863 16.1877C41.1215 15.7595 40.9074 15.1172 40.9074 15.1172C40.6934 15.0101 40.6934 14.796 40.6934 14.796C41.0145 14.582 40.9074 14.2608 40.9074 14.2608C40.6934 14.2608 40.6934 13.9397 40.6934 13.9397C41.0145 13.6185 40.8005 13.4045 40.8005 13.4045C40.5864 12.8693 39.837 12.9763 39.837 12.9763C39.9441 12.2269 39.3018 12.334 39.3018 12.334C38.9807 12.334 38.5524 13.1903 38.5524 13.1903C38.1242 13.4044 37.589 14.4749 37.589 14.4749C37.6961 14.796 37.4819 15.2243 37.4819 15.2243C37.4819 15.2243 37.4819 15.2243 36.9467 15.4383C36.4115 15.6524 35.8762 15.5454 35.8762 15.5454C36.4114 13.4045 36.1973 12.6551 36.1973 12.6551C35.7691 10.7282 35.1268 9.2296 35.1268 9.2296C35.1268 8.58731 34.6986 8.15908 34.6986 8.15908C34.8057 7.73085 35.1268 7.40971 35.1268 7.40971C35.3409 7.51679 36.5185 7.40971 36.5185 7.40971C37.1608 7.40971 37.1608 7.08856 37.1608 7.08856C36.7326 6.66034 36.9467 6.23221 36.9467 6.23221C37.1608 6.01815 37.1608 5.697 37.1608 5.697C37.0537 5.58992 37.1608 5.37586 37.1608 5.37586C37.3748 5.16179 37.2679 4.94763 37.2679 4.94763V4.73357C37.9102 4.73357 37.8031 4.41242 37.8031 4.41242L36.9467 3.23492C36.8397 0.986808 34.9129 0.130455 34.9129 0.130455C32.7719 -0.404754 31.0591 0.879826 31.0591 0.879826C29.9886 1.95034 30.5239 3.12784 30.5239 3.12784C31.2733 4.84065 31.4874 5.58992 31.4874 5.58992V6.12513C30.0957 6.55336 29.7745 7.30263 29.7745 7.30263C27.5265 7.30263 26.7772 8.48012 26.7772 8.48012C23.5657 9.01533 22.4952 9.55064 20.7825 10.0858C19.0697 10.7281 20.2473 11.9056 20.2473 11.9056C20.2473 11.9056 21.853 14.1537 22.6024 14.5819C23.2447 15.0101 26.6702 18.0074 26.6702 18.0074V18.5426C26.5631 18.9708 27.0984 19.9343 27.0984 19.9343C27.0984 20.4695 26.349 20.8977 26.349 20.8977C24.7433 22.5034 24.6362 24.2162 24.6362 24.2162V26.036C23.7799 26.6783 23.8869 27.1065 23.8869 27.1065L24.4221 28.07C23.7798 29.2475 22.4952 32.6731 22.4952 32.6731C22.4952 32.6731 21.3177 34.6 19.926 35.2422C18.5344 35.8845 17.3569 39.2031 17.3569 39.2031C17.0357 40.3806 15.5371 42.0934 15.5371 42.0934L13.3962 44.4485C12.2187 44.3414 11.7904 44.5555 11.7904 44.5555C10.3988 44.3415 11.2552 46.1613 11.2552 46.1613C12.2187 47.8741 12.1116 48.7304 12.1116 48.7304C12.7539 50.8714 14.2525 51.5137 14.2525 51.5137C16.1794 52.37 16.7146 51.8348 16.7146 51.8348C17.1428 51.1925 16.2864 50.7643 16.2864 50.7643C15.1089 49.9079 15.6441 47.1246 15.6441 47.1246C16.6075 46.3752 15.7512 45.84 15.7512 45.84C15.3229 45.3048 15.9652 44.8766 15.9652 44.8766C16.0723 44.5554 20.3542 40.1665 20.3542 40.1665C20.6753 39.6313 23.0304 37.2762 23.0304 37.2762C24.6361 35.8845 26.6701 33.1013 26.6701 33.1013C28.3829 31.2815 29.0252 29.7828 29.0252 29.7828C29.0252 29.4616 29.9886 29.5687 29.9886 29.5687C30.3098 29.7828 31.2732 29.6758 31.2732 29.6758L35.9833 32.0309C36.8396 32.352 36.3044 32.7803 36.3044 32.7803C34.8058 34.2789 34.3776 35.2423 34.3776 35.2423C33.2001 36.9552 29.5604 39.9524 29.5604 39.9524C29.0252 40.0595 26.3489 41.5582 26.3489 41.5582C24.8503 41.8793 26.1349 43.485 26.1349 43.485C26.1349 43.485 27.4195 44.8767 27.7406 45.4119C28.0617 45.9471 29.1323 47.1247 29.1323 47.1247C30.952 48.7304 31.9155 48.7304 32.8789 48.5164C33.9494 48.1952 32.6649 47.5529 32.6649 47.5529C31.9155 46.8036 31.8085 45.7331 31.3803 45.1978C30.952 44.4485 31.4874 43.485 31.4874 43.485C31.9156 43.1639 31.5944 42.9498 31.3803 42.8427C30.2028 42.4145 31.0591 41.6652 31.0591 41.6652C32.0226 40.7018 35.6622 38.1326 35.6622 38.1326C37.8032 36.8481 39.516 34.8141 39.516 34.8141C40.4794 34.2789 40.8006 33.6366 40.8006 33.6366C41.6569 32.352 40.4793 31.1744 40.4793 31.1744ZM27.3124 13.6185C26.7772 14.2608 27.0983 16.0806 27.0983 16.0806C27.0983 16.0806 24.4221 14.1538 23.4586 12.2269V11.5846C23.4586 11.5846 25.9207 11.5846 27.3124 11.3705L27.5264 12.7622C27.5265 12.6551 27.8477 13.0833 27.3124 13.6185Z" fill="#00B248"/>
<path d="M32.7718 24.6446V22.9318C32.7718 22.7177 32.8789 22.6106 33.093 22.6106C33.3071 22.6106 33.4141 22.3966 33.4141 22.2895V20.6838C33.5212 20.2555 26.9912 19.9344 26.9912 19.9344C26.9912 20.4696 26.2419 20.8978 26.2419 20.8978C24.6361 22.5035 24.5291 24.2164 24.5291 24.2164V26.0361C23.6727 26.6784 23.7797 27.1067 23.7797 27.1067L24.3149 28.0701C23.8867 28.9265 23.0303 30.9604 22.7092 32.0309H27.5263C28.5969 30.7463 29.025 29.7829 29.025 29.7829C29.025 29.4618 29.9884 29.5688 29.9884 29.5688C30.3096 29.7829 31.273 29.6759 31.273 29.6759L35.9831 32.031C36.7325 32.2451 38.9805 29.5689 38.9805 29.5689C36.7327 26.3573 32.7718 24.6446 32.7718 24.6446Z" fill="#00E676"/>
<path d="M15.8583 44.8766L13.7173 43.9132L13.2891 44.4484C12.1116 44.3413 11.6834 44.5555 11.6834 44.5555C10.2917 44.3414 11.1482 46.1612 11.1482 46.1612C12.1116 47.874 12.0045 48.7304 12.0045 48.7304C12.6468 50.8713 14.1455 51.5136 14.1455 51.5136C16.0723 52.37 16.6075 51.8348 16.6075 51.8348C17.0358 51.1925 16.1793 50.7642 16.1793 50.7642C15.0018 49.9079 15.537 47.1246 15.537 47.1246C16.5004 46.3752 15.6441 45.84 15.6441 45.84C15.216 45.3048 15.8583 44.8766 15.8583 44.8766Z" fill="#00E676"/>
<path d="M32.5578 47.5528C31.8084 46.8034 31.7015 45.733 31.2732 45.1977C30.845 44.4483 31.3803 43.4849 31.3803 43.4849C31.8085 43.1638 31.4874 42.9497 31.2732 42.8426C30.0957 42.4144 30.9521 41.6651 30.9521 41.6651L29.3464 39.8453C28.8112 39.9524 26.1349 41.4511 26.1349 41.4511C24.6363 41.7722 25.9209 43.3779 25.9209 43.3779C25.9209 43.3779 27.2054 44.7696 27.5266 45.3048C27.8477 45.84 28.9182 47.0176 28.9182 47.0176C30.738 48.6233 31.7015 48.6233 32.6649 48.4093C33.8424 48.1951 32.5578 47.5528 32.5578 47.5528Z" fill="#00E676"/>
</g>
<defs>
<clipPath id="clip0">
<rect width="52" height="52" fill="white"/>
</clipPath>
</defs>
</svg>
