<svg width="52" height="52" viewBox="0 0 52 52" fill="none" xmlns="http://www.w3.org/2000/svg">
<g clip-path="url(#clip0)">
<path d="M43.0705 51.5744H8.99727C5.82926 51.5744 3.26068 49.0062 3.26068 45.8374V19.8523C3.26068 16.6839 5.82926 14.1153 8.99727 14.1153H43.0705C46.2389 14.1153 48.8071 16.6839 48.8071 19.8523V45.8374C48.8075 49.0062 46.2389 51.5744 43.0705 51.5744Z" fill="#003D00"/>
<path d="M43.2813 17.472H38.0369C35.9393 22.0064 31.3496 25.162 26.0341 25.162C20.7186 25.162 16.1285 22.0064 14.0313 17.472H8.99936C7.4351 17.472 6.13023 18.5371 5.84631 19.9409V46.9286C6.13023 48.3328 7.4351 49.3974 8.99936 49.3974H21.2865C21.4299 49.3974 21.5695 49.3833 21.7063 49.3608V49.3974H30.5743V49.3608C30.7111 49.3833 30.8512 49.3974 30.9946 49.3974H43.2813C44.8459 49.3974 46.1508 48.3328 46.4347 46.9286V19.9409C46.1508 18.5371 44.8459 17.472 43.2813 17.472Z" fill="#00B248"/>
<path d="M43.0705 52.0001H8.99728C5.59939 52.0001 2.83502 49.2357 2.83502 45.8374V19.8524C2.83502 16.4541 5.59939 13.6897 8.99728 13.6897H43.0705C46.4688 13.6897 49.2332 16.4541 49.2332 19.8524V45.8374C49.2332 49.2357 46.4688 52.0001 43.0705 52.0001ZM8.99728 14.541C6.06871 14.541 3.68636 16.9234 3.68636 19.8524V45.8374C3.68636 48.7664 6.06871 51.1488 8.99728 51.1488H43.0705C45.9995 51.1488 48.3818 48.7664 48.3818 45.8374V19.8524C48.3818 16.9234 45.9995 14.541 43.0705 14.541H8.99728Z" fill="#32681D"/>
<path d="M37.5509 11.9425C37.5509 18.303 32.3946 23.4593 26.0341 23.4593C19.6735 23.4593 14.5173 18.303 14.5173 11.9425C14.5173 5.58192 19.6735 0.425232 26.0341 0.425232C32.3946 0.425232 37.5509 5.58192 37.5509 11.9425Z" fill="#003D00"/>
<path d="M34.9969 11.9425C34.9969 16.8926 30.9842 20.9053 26.0341 20.9053C21.084 20.9053 17.0713 16.8926 17.0713 11.9425C17.0713 6.99244 21.084 2.97974 26.0341 2.97974C30.9842 2.97974 34.9969 6.99244 34.9969 11.9425Z" fill="#66FFA6"/>
<path d="M29.5808 7.40393C28.4206 7.05267 27.1914 7.31622 26.2328 8.00877C26.1143 8.09399 25.9535 8.09399 25.8354 8.00877C24.8768 7.31622 23.6472 7.05267 22.487 7.40393C20.3507 8.05159 19.2533 10.4273 20.0427 12.596C20.3291 13.3833 20.8238 14.0318 21.4357 14.4961L21.4373 14.4969L25.5294 17.6529C25.5294 17.6529 25.6088 17.7389 25.7356 17.8088C25.7581 17.8229 25.7814 17.8341 25.805 17.8433C25.9684 17.9135 26.1871 17.9393 26.4136 17.7672V17.7676L26.4282 17.756C26.4332 17.7518 26.4377 17.7481 26.4427 17.7439L26.9586 17.3286L30.6304 14.4965L30.6321 14.4957C31.244 14.0309 31.7387 13.3829 32.0251 12.5955C32.8145 10.4273 31.7171 8.05159 29.5808 7.40393Z" fill="#00B248"/>
<path d="M32.4823 32.0205L32.4828 32.0172H32.4832C32.9808 29.2395 35.6267 27.3855 38.401 27.8748L38.5261 27.8968C41.3001 28.3857 43.1528 31.0332 42.6702 33.8134H42.6706L42.6698 33.8167C42.6689 33.82 42.6689 33.8238 42.6681 33.8271H42.6673L39.9632 44.3396C39.3962 46.5436 37.2329 47.9403 34.9969 47.5462C32.7609 47.1522 31.2057 45.0995 31.4269 42.8344L32.4815 32.0309H32.4803C32.4807 32.0271 32.4815 32.0238 32.4823 32.0205Z" fill="#66FFA6"/>
<path d="M34.4477 23.8318C33.5394 23.6713 32.6378 24.4798 32.4341 25.6367C32.23 26.794 32.8008 27.8619 33.7091 28.022C34.6173 28.182 35.519 27.3739 35.7231 26.2166C35.9268 25.0597 35.356 23.9918 34.4477 23.8318Z" fill="#66FFA6"/>
<path d="M37.6145 24.1057C36.9415 23.9872 36.2784 24.5588 36.1329 25.3827C35.9879 26.2062 36.4156 26.9702 37.0886 27.0887C37.7616 27.2076 38.4246 26.636 38.5697 25.8121C38.7152 24.9882 38.2875 24.2246 37.6145 24.1057Z" fill="#66FFA6"/>
<path d="M40.2384 24.8332C39.6128 24.7226 38.9963 25.2543 38.8612 26.0204C38.7261 26.7861 39.1239 27.4965 39.7495 27.6071C40.3752 27.7173 40.992 27.1856 41.1267 26.4199C41.2618 25.6537 40.864 24.9433 40.2384 24.8332Z" fill="#66FFA6"/>
<path d="M42.3368 26.5866C41.7739 26.4873 41.219 26.9657 41.0972 27.6549C40.9758 28.3446 41.3337 28.9835 41.8966 29.0828C42.4598 29.1822 43.0148 28.7037 43.1362 28.0145C43.258 27.3253 42.9001 26.686 42.3368 26.5866Z" fill="#66FFA6"/>
<path d="M43.9065 29.4054C43.4293 29.3214 42.9591 29.7267 42.8564 30.3107C42.7533 30.8948 43.0564 31.4364 43.5336 31.5204C44.0108 31.6044 44.481 31.1991 44.5836 30.615C44.6867 30.0314 44.3833 29.4897 43.9065 29.4054Z" fill="#66FFA6"/>
<path d="M19.5858 32.0205L19.5854 32.0172H19.585C19.0874 29.2395 16.4415 27.3855 13.6672 27.8748L13.542 27.8968C10.7681 28.3857 8.91535 31.0332 9.39797 33.8134H9.39756L9.39839 33.8167C9.39922 33.82 9.39922 33.8238 9.40005 33.8271H9.40088L12.105 44.3396C12.672 46.5436 14.8353 47.9403 17.0713 47.5462C19.3073 47.1522 20.8624 45.0995 20.6413 42.8344L19.5866 32.0309H19.5875C19.5871 32.0271 19.5862 32.0238 19.5858 32.0205Z" fill="#66FFA6"/>
<path d="M19.6307 25.6388C19.4266 24.4815 18.525 23.6734 17.6167 23.8334C16.7084 23.9935 16.1376 25.0614 16.3417 26.2187C16.5454 27.3756 17.4471 28.1837 18.3554 28.0236C19.2637 27.8636 19.8344 26.7957 19.6307 25.6388Z" fill="#66FFA6"/>
<path d="M15.9315 25.3839C15.786 24.5604 15.1229 23.9889 14.4499 24.1073C13.7773 24.2258 13.3492 24.9899 13.4947 25.8138C13.6397 26.6373 14.3032 27.2093 14.9758 27.0904C15.6488 26.9719 16.0765 26.2079 15.9315 25.3839Z" fill="#66FFA6"/>
<path d="M13.2033 26.0216C13.0681 25.2555 12.4517 24.7242 11.826 24.8344C11.2 24.9446 10.8026 25.655 10.9373 26.4211C11.0724 27.1868 11.6893 27.7185 12.3149 27.6083C12.9405 27.4982 13.3384 26.7877 13.2033 26.0216Z" fill="#66FFA6"/>
<path d="M10.9668 27.6566C10.8454 26.9674 10.2905 26.4889 9.72764 26.5883C9.16438 26.6872 8.80647 27.3265 8.92785 28.0162C9.04965 28.7054 9.6046 29.1838 10.1674 29.0845C10.7307 28.9851 11.0886 28.3458 10.9668 27.6566Z" fill="#66FFA6"/>
<path d="M9.2076 30.312C9.10451 29.7284 8.63436 29.3231 8.15756 29.4071C7.68034 29.491 7.3773 30.0327 7.47998 30.6167C7.58307 31.2008 8.05322 31.6061 8.53044 31.5217C9.00724 31.4378 9.3107 30.8961 9.2076 30.312Z" fill="#66FFA6"/>
<path d="M26.0341 23.885C19.4491 23.885 14.0916 18.5275 14.0916 11.9425C14.0916 5.35789 19.4491 0 26.0341 0C32.6191 0 37.9766 5.35747 37.9766 11.9425C37.9766 18.5275 32.6191 23.885 26.0341 23.885ZM26.0341 0.851342C19.9184 0.851342 14.943 5.82679 14.943 11.9425C14.943 18.0582 19.9184 23.0336 26.0341 23.0336C32.1498 23.0336 37.1253 18.0582 37.1253 11.9425C37.1253 5.82721 32.1498 0.851342 26.0341 0.851342Z" fill="#003D00"/>
<path d="M26.0341 21.3309C20.8574 21.3309 16.6456 17.1195 16.6456 11.9425C16.6456 6.76583 20.8574 2.55402 26.0341 2.55402C31.2107 2.55402 35.4225 6.76542 35.4225 11.9425C35.4225 17.1191 31.2107 21.3309 26.0341 21.3309ZM26.0341 3.40536C21.3268 3.40536 17.497 7.23515 17.497 11.9425C17.497 16.6498 21.3268 20.4796 26.0341 20.4796C30.7414 20.4796 34.5712 16.6498 34.5712 11.9425C34.5712 7.23515 30.7414 3.40536 26.0341 3.40536Z" fill="#003D00"/>
</g>
<defs>
<clipPath id="clip0">
<rect width="52" height="52" fill="white"/>
</clipPath>
</defs>
</svg>
