<svg width="52" height="52" viewBox="0 0 52 52" fill="none" xmlns="http://www.w3.org/2000/svg">
<g clip-path="url(#clip0)">
<path d="M25.5666 51.0371C39.4474 51.0371 50.7 39.7845 50.7 25.9038C50.7 12.023 39.4474 0.770447 25.5666 0.770447C11.6859 0.770447 0.433289 12.023 0.433289 25.9038C0.433289 39.7845 11.6859 51.0371 25.5666 51.0371Z" fill="#00B248"/>
<path d="M25.5666 42.3705C34.6609 42.3705 42.0333 34.9981 42.0333 25.9038C42.0333 16.8095 34.6609 9.43713 25.5666 9.43713C16.4724 9.43713 9.09998 16.8095 9.09998 25.9038C9.09998 34.9981 16.4724 42.3705 25.5666 42.3705Z" fill="#ECF0F1"/>
<path d="M36.4 52C44.7763 52 51.5667 45.2097 51.5667 36.8334C51.5667 28.457 44.7763 21.6667 36.4 21.6667C28.0237 21.6667 21.2333 28.457 21.2333 36.8334C21.2333 45.2097 28.0237 52 36.4 52Z" fill="#66FFA6"/>
<path d="M11.6999 10.4V19.9333C11.7012 21.514 10.631 22.8945 9.09993 23.2873C8.81763 23.3647 8.52597 23.4026 8.23326 23.4H4.7666C4.47389 23.4026 4.18223 23.3647 3.89993 23.2873C2.36884 22.8945 1.29865 21.514 1.29993 19.9333V10.4C1.29914 9.89562 1.52118 9.41665 1.9066 9.09132C2.58874 8.49322 3.61905 8.53124 4.25526 9.17799C4.58447 9.49905 4.76904 9.94014 4.7666 10.4C4.76899 9.51073 5.44204 8.76664 6.3266 8.67532C6.44186 8.66374 6.558 8.66374 6.67326 8.67532C7.07071 8.71557 7.44162 8.89336 7.72193 9.17799C8.05114 9.49905 8.23571 9.94014 8.23326 10.4C8.23612 9.44388 9.01049 8.66951 9.9666 8.66665C10.3817 8.66427 10.783 8.81554 11.0933 9.09132C11.1271 9.1178 11.159 9.14677 11.1886 9.17799C11.5178 9.49905 11.7024 9.94014 11.6999 10.4Z" fill="#00E676"/>
<path d="M9.0999 23.2874V44.2C9.0999 45.636 7.93584 46.8 6.4999 46.8C5.06396 46.8 3.8999 45.636 3.8999 44.2V23.2874C4.1822 23.3648 4.47386 23.4027 4.76657 23.4H8.23324C8.52594 23.4027 8.8176 23.3648 9.0999 23.2874Z" fill="#32681D"/>
<path d="M19.5 27.7333V44.2C19.5 45.6359 18.3359 46.8 16.9 46.8C15.464 46.8 14.3 45.6359 14.3 44.2V27.7333H19.5Z" fill="#32681D"/>
<path d="M19.5 9.53329V27.7333H14.3V21.6666C14.3 10.0273 16.2413 8.66663 18.6333 8.66663C19.112 8.66663 19.5 9.05465 19.5 9.53329Z" fill="#00E676"/>
<path d="M28.8435 32.3914C28.6999 32.2118 28.4908 32.0967 28.2622 32.0713C28.0337 32.046 27.8044 32.1125 27.6249 32.2562L24.6999 34.5962V32.9331C24.6999 32.4544 24.3119 32.0664 23.8333 32.0664C23.3546 32.0664 22.9666 32.4544 22.9666 32.9331V39.8664C22.9666 40.3451 23.3546 40.7331 23.8333 40.7331C24.3119 40.7331 24.6999 40.3451 24.6999 39.8664V38.2033L27.6249 40.5433C27.9988 40.8424 28.5443 40.7819 28.8435 40.4081C29.1426 40.0343 29.0821 39.4887 28.7083 39.1896L25.2199 36.3997L28.7074 33.6099C28.8871 33.4664 29.0024 33.2574 29.0279 33.0289C29.0535 32.8003 28.9871 32.571 28.8435 32.3914Z" fill="#32681D"/>
<path d="M32.5 33.8H33.3666C33.8453 33.8 34.2333 34.188 34.2333 34.6666C34.2333 35.1453 34.6213 35.5333 35.1 35.5333C35.5786 35.5333 35.9666 35.1453 35.9666 34.6666C35.9666 33.2307 34.8026 32.0667 33.3666 32.0667H32.5C31.064 32.0667 29.9 33.2307 29.9 34.6666V38.1333C29.9 39.5692 31.064 40.7333 32.5 40.7333H33.3666C34.8026 40.7333 35.9666 39.5692 35.9666 38.1333C35.9666 37.6547 35.5786 37.2666 35.1 37.2666C34.6213 37.2666 34.2333 37.6547 34.2333 38.1333C34.2333 38.612 33.8453 39 33.3666 39H32.5C32.0213 39 31.6333 38.612 31.6333 38.1333V34.6666C31.6333 34.188 32.0213 33.8 32.5 33.8Z" fill="#32681D"/>
<path d="M41.112 32.6291C40.9856 32.29 40.6618 32.0652 40.3 32.0652C39.9381 32.0652 39.6143 32.29 39.4879 32.6291L36.8879 39.5624C36.7795 39.8526 36.8342 40.1785 37.0312 40.4174C37.2283 40.6563 37.5378 40.7719 37.8433 40.7207C38.1487 40.6695 38.4036 40.4592 38.512 40.1691L38.9506 39H41.6493L42.0879 40.1708C42.2148 40.5093 42.5384 40.7335 42.8999 40.7333C43.004 40.7329 43.1073 40.7144 43.205 40.6787C43.4203 40.598 43.5947 40.435 43.6898 40.2256C43.7849 40.0162 43.7929 39.7777 43.712 39.5624L41.112 32.6291ZM39.6006 37.2666L40.3 35.4016L40.9993 37.2666H39.6006Z" fill="#32681D"/>
<path d="M49.8333 39H46.3666V32.9333C46.3666 32.4547 45.9786 32.0667 45.5 32.0667C45.0213 32.0667 44.6333 32.4547 44.6333 32.9333V39.8666C44.6333 40.3453 45.0213 40.7333 45.5 40.7333H49.8333C50.3119 40.7333 50.7 40.3453 50.7 39.8666C50.7 39.388 50.3119 39 49.8333 39Z" fill="#32681D"/>
<path d="M4.76666 10.4V17.3333C4.76666 17.8119 4.37864 18.2 3.89999 18.2C3.42135 18.2 3.03333 17.8119 3.03333 17.3333V8.66663C3.98767 8.6737 4.75958 9.44561 4.76666 10.4Z" fill="#32681D"/>
<path d="M9.96661 8.66663V17.3333C9.96661 17.8119 9.57859 18.2 9.09994 18.2C8.6213 18.2 8.23328 17.8119 8.23328 17.3333V10.4C8.23613 9.44385 9.0105 8.66948 9.96661 8.66663Z" fill="#32681D"/>
</g>
<defs>
<clipPath id="clip0">
<rect width="52" height="52" fill="white"/>
</clipPath>
</defs>
</svg>
