<svg width="52" height="52" viewBox="0 0 52 52" fill="none" xmlns="http://www.w3.org/2000/svg">
<path d="M43.8409 28.9905H37.6253C36.6097 28.9905 35.7869 29.8138 35.7869 30.829V38.2661C35.7869 37.2508 34.9637 36.4276 33.9485 36.4276H27.7325C26.7169 36.4276 25.8941 37.2504 25.8941 38.2661V43.1692C25.8941 42.154 25.0709 41.3308 24.0556 41.3308H17.8397C16.8241 41.3308 16.0013 42.154 16.0013 43.1692V47.7336C16.0013 46.7184 15.178 45.8951 14.1624 45.8951H7.94687C6.93164 45.8951 6.10843 46.718 6.10843 47.7336V51.2236H45.6797V30.829C45.6797 29.8138 44.8565 28.9905 43.8409 28.9905Z" fill="#66FFA6"/>
<path d="M38.4724 29.7669C38.0431 29.7669 37.6956 29.4194 37.6956 28.9905V0.776398C37.6956 0.347534 38.0431 0 38.4724 0C38.9012 0 39.2487 0.347534 39.2487 0.776398V28.9905C39.2487 29.4194 38.9008 29.7669 38.4724 29.7669Z" fill="#003D00"/>
<path d="M16.0013 51.2236H6.10843V47.7336C6.10843 46.7184 6.93164 45.8951 7.94687 45.8951H14.1628C15.178 45.8951 16.0013 46.718 16.0013 47.7336V51.2236Z" fill="#66FFA6"/>
<path d="M25.8941 51.2236H16.0013V43.1693C16.0013 42.154 16.8245 41.3308 17.8397 41.3308H24.0556C25.0709 41.3308 25.8941 42.154 25.8941 43.1693V51.2236Z" fill="#00E676"/>
<path d="M35.7869 51.2236H25.8941V38.2661C25.8941 37.2508 26.7169 36.4276 27.7325 36.4276H33.9485C34.9637 36.4276 35.7869 37.2504 35.7869 38.2661V51.2236Z" fill="#00B248"/>
<path d="M45.6797 51.2236H35.7869V30.829C35.7869 29.8138 36.6097 28.9905 37.6253 28.9905H43.8409C44.8565 28.9905 45.6797 29.8138 45.6797 30.829V51.2236Z" fill="#32681D"/>
<path d="M48.4215 52H3.51859C3.08972 52 2.74219 51.6525 2.74219 51.2236C2.74219 50.7947 3.08972 50.4472 3.51859 50.4472H48.4215C48.8504 50.4472 49.1979 50.7947 49.1979 51.2236C49.1979 51.6525 48.8504 52 48.4215 52Z" fill="#003D00"/>
<path d="M38.4724 8.15829H48.4227C48.731 8.15829 48.875 7.77664 48.6437 7.57312L46.059 5.29669C45.9074 5.16379 45.9074 4.92813 46.059 4.79483L48.6437 2.5188C48.875 2.31488 48.731 1.93323 48.4227 1.93323H38.4724V8.15829Z" fill="#00E676"/>
<path d="M39.2646 11.0715L28.4855 16.9261C27.5238 17.4485 27.2608 18.3666 26.9252 19.5492L24.7816 27.1303L27.6127 28.1027L30.0347 24.9773L32.0735 18.8133L37.498 15.5173C39.0139 14.5965 39.7347 12.7818 39.2646 11.0715Z" fill="#619648" fill-opacity="0.85"/>
<path d="M39.2646 11.0715L38.0209 11.7472C37.8114 12.8175 37.1647 13.7844 36.1868 14.3787L31.244 17.3819C30.9329 17.5707 30.6992 17.8647 30.5846 18.2103L29.8788 20.3443C29.1453 22.562 27.479 24.3484 25.3176 25.2343L24.7816 27.1303L30.0347 24.9777L32.0735 18.8137L37.498 15.5173C39.0139 14.5965 39.7347 12.7818 39.2646 11.0715Z" fill="#619648"/>
<path d="M30.0347 24.9772L33.1387 28.6462C33.6533 29.3274 34.1008 29.8062 34.008 30.5556L33.282 36.4244H31.3876L30.8925 31.3792C30.8623 31.0738 30.6691 30.8091 30.3874 30.6877L24.7816 27.1303L30.0347 24.9772Z" fill="#32681D"/>
<path d="M24.7816 27.1303L24.4789 32.6928C24.4591 33.1542 24.5238 33.466 24.3433 33.8092L20.7687 41.3308H22.7782L28.1526 34.1905C28.4669 33.8247 28.5034 33.328 28.6093 32.8709L30.0343 24.9772L24.7816 27.1303Z" fill="#32681D"/>
<path d="M29.6495 12.2724L30.5311 13.9934C30.9452 14.8019 30.6255 15.7937 29.8165 16.2079L29.1354 16.5567C28.3264 16.9708 27.335 16.6511 26.9208 15.8421L26.0393 14.1211C25.6251 13.3122 25.9449 12.3208 26.7538 11.9066L27.435 11.5579C28.2435 11.1437 29.2349 11.4635 29.6495 12.2724Z" fill="#619648"/>
</svg>
